<svg width="28" height="28" viewBox="0 0 28 28" fill="none" xmlns="http://www.w3.org/2000/svg">
<path fill-rule="evenodd" clip-rule="evenodd" d="M13 13L0 13L0 10L13 10V13Z" fill="#E0E1E3"/>
<path fill-rule="evenodd" clip-rule="evenodd" d="M21 8L8 8V6L21 6V8Z" fill="#E0E1E3"/>
<path fill-rule="evenodd" clip-rule="evenodd" d="M13 17L0 17L0 14L13 14V17Z" fill="#E0E1E3"/>
<path fill-rule="evenodd" clip-rule="evenodd" d="M13 21L0 21L0 18L13 18V21Z" fill="#E0E1E3"/>
<path fill-rule="evenodd" clip-rule="evenodd" d="M28 13L15 13V10L28 10V13Z" fill="#E0E1E3"/>
<path fill-rule="evenodd" clip-rule="evenodd" d="M28 17L15 17V14L28 14V17Z" fill="#E0E1E3"/>
<path fill-rule="evenodd" clip-rule="evenodd" d="M28 21L15 21V18L28 18V21Z" fill="#E0E1E3"/>
</svg>
