<svg width="16" height="16" viewBox="0 0 16 16" fill="none" xmlns="http://www.w3.org/2000/svg"><path d="M15.9724 0.224727C15.9164 0.0887387 15.7833 0 15.6364 0C1.52366 0 0 5.84874 0 8.36363C0 9.26837 0.200727 10.1135 0.597103 10.8749C0.658194 10.9927 0.77891 11.0676 0.911285 11.0706C1.03636 11.0669 1.16802 11.0044 1.23419 10.8887C2.18693 9.24219 4.88509 5.17817 9.34112 3.01892C9.52368 2.93165 9.74186 3.00655 9.82838 3.18621C9.91566 3.3673 9.84001 3.58548 9.65967 3.67275C9.32367 3.83567 9.00076 4.01312 8.68439 4.1971C8.56368 4.26764 8.44657 4.34257 8.32804 4.416C8.14985 4.52656 7.97387 4.63926 7.80222 4.75565C7.63132 4.87057 7.46257 4.98839 7.29675 5.10911C7.24511 5.14691 7.19568 5.18547 7.14474 5.22403C2.70982 8.52873 0 13.8007 0 15.6364C0 15.8371 0.162921 16 0.363648 16C0.564375 16 0.727296 15.8371 0.727296 15.6364C0.727296 15.0502 1.12657 13.8619 1.88219 12.4444C2.97893 13.3411 4.45456 13.8182 6.18185 13.8182C10.8517 13.8182 11.8299 9.37456 12.3549 6.98694C13.0618 3.77383 14.6175 1.89675 15.8931 0.620387C15.9979 0.516375 16.0284 0.360716 15.9724 0.224727Z" fill="#FFF"/></svg>