<svg width="14" height="14" viewBox="0 0 14 14" fill="none" xmlns="http://www.w3.org/2000/svg">
<path fill-rule="evenodd" clip-rule="evenodd" d="M6.99992 1.58365C4.00814 1.58365 1.58325 4.00853 1.58325 7.00032C1.58325 9.99208 4.00814 12.417 6.99992 12.417C9.99169 12.417 12.4166 9.99207 12.4166 7.00032C12.4166 4.00854 9.99169 1.58365 6.99992 1.58365ZM0.083252 7.00032C0.083252 3.1801 3.17971 0.0836487 6.99992 0.0836487C10.8201 0.0836487 13.9166 3.1801 13.9166 7.00032C13.9166 10.8205 10.8201 13.917 6.99992 13.917C3.17971 13.917 0.083252 10.8205 0.083252 7.00032Z" fill="white"/>
<path fill-rule="evenodd" clip-rule="evenodd" d="M6.77429 3.48126C7.18851 3.48126 7.52429 3.81705 7.52429 4.23126V7.0367L9.67184 8.31784C10.0276 8.53005 10.1439 8.99045 9.9317 9.34617C9.71949 9.7019 9.25909 9.81824 8.90336 9.60603L6.39005 8.1067C6.16322 7.97138 6.02429 7.72673 6.02429 7.4626V4.23126C6.02429 3.81705 6.36008 3.48126 6.77429 3.48126Z" fill="white"/>
</svg>
