<?xml version="1.0" encoding="UTF-8" standalone="no"?><!-- Generator: Gravit.io --><svg xmlns="http://www.w3.org/2000/svg" xmlns:xlink="http://www.w3.org/1999/xlink" style="isolation:isolate" viewBox="825.81 755.19 15 13.56" width="15pt" height="13.56pt"><path d=" M 839.313 757.688 L 839.313 764.354 C 839.313 764.906 838.865 765.354 838.313 765.354 L 829.813 765.354 L 827.475 767.224 C 827.409 767.277 827.313 767.23 827.313 767.146 L 827.313 764.688 L 827.313 757.688 C 827.313 757.135 827.76 756.688 828.313 756.688 L 838.313 756.688 C 838.865 756.688 839.313 757.135 839.313 757.688 Z  M 840.81 757.69 L 840.81 764.35 C 840.81 765.02 840.55 765.65 840.08 766.12 C 839.61 766.59 838.98 766.85 838.31 766.85 L 830.34 766.85 L 828.22 768.55 L 827.92 768.66 C 827.76 768.72 827.59 768.75 827.42 768.75 C 826.99 768.75 826.58 768.58 826.28 768.28 C 825.98 767.98 825.81 767.57 825.81 767.15 C 825.81 767.15 825.81 767.15 825.81 767.15 L 825.81 764.69 L 825.81 757.69 C 825.81 757.02 826.08 756.39 826.54 755.92 C 827.01 755.45 827.65 755.19 828.31 755.19 L 838.31 755.19 C 838.98 755.19 839.61 755.45 840.08 755.92 C 840.55 756.39 840.81 757.02 840.81 757.69 Z " fill-rule="evenodd" fill="rgb(255,255,255)"/></svg>