<svg width="16" height="16" viewBox="0 0 16 16" fill="none" xmlns="http://www.w3.org/2000/svg"><path d="M14 2H13.3334V0.666626C13.3334 0.298706 13.0347 0 12.6666 0H12C11.632 0 11.3334 0.298706 11.3334 0.666626V2H4.66663V0.666626C4.66663 0.298706 4.36804 0 4 0H3.33337C2.96533 0 2.66663 0.298706 2.66663 0.666626V2H2C0.897339 2 0 2.89734 0 4V14C0 15.1027 0.897339 16 2 16H14C15.1027 16 16 15.1027 16 14V4C16 2.89734 15.1027 2 14 2ZM14.6666 14C14.6666 14.3673 14.3673 14.6666 14 14.6666H2C1.63269 14.6666 1.33337 14.3673 1.33337 14V6.69336H14.6666V14Z" fill="#FFF"/><path fill-rule="evenodd" clip-rule="evenodd" d="M11.7788 8.18441C12.0608 8.44195 12.0751 8.87343 11.8107 9.14814L8.31068 12.7845C8.17834 12.922 7.99349 13 7.8 13C7.60651 13 7.42166 12.922 7.28932 12.7845L5.18933 10.6027C4.92492 10.328 4.9392 9.8965 5.22124 9.63895C5.50328 9.38141 5.94627 9.39533 6.21068 9.67004L7.8 11.3213L10.7893 8.2155C11.0537 7.94078 11.4967 7.92687 11.7788 8.18441Z" fill="#FFF"/></svg>