<svg width="28" height="28" viewBox="0 0 28 28" fill="none" xmlns="http://www.w3.org/2000/svg">
<path d="M3.95455 15.3333L1 20V20.5H13.5V16L9.86364 13L6.90909 17.6667L3.95455 15.3333Z" fill="#E0E1E3"/>
<path fill-rule="evenodd" clip-rule="evenodd" d="M9.74447 12.2535L14 15.7643V21H0.5V19.855L3.82894 14.597L6.78348 16.9303L9.74447 12.2535ZM9.9828 13.7465L7.0347 18.403L4.08015 16.0697L1.59178 20H13V16.2357L9.9828 13.7465Z" fill="#E0E1E3"/>
<path fill-rule="evenodd" clip-rule="evenodd" d="M13 8H1V20H13V8ZM0 7V21H14V7H0Z" fill="#E0E1E3"/>
<path fill-rule="evenodd" clip-rule="evenodd" d="M28 12L16 12V11L28 11V12Z" fill="#E0E1E3"/>
<path fill-rule="evenodd" clip-rule="evenodd" d="M28 9H16V7H28V9Z" fill="#E0E1E3"/>
<path fill-rule="evenodd" clip-rule="evenodd" d="M28 15L16 15V14L28 14V15Z" fill="#E0E1E3"/>
<path fill-rule="evenodd" clip-rule="evenodd" d="M28 18L16 18V17L28 17V18Z" fill="#E0E1E3"/>
<path fill-rule="evenodd" clip-rule="evenodd" d="M26 21L16 21V20L26 20V21Z" fill="#E0E1E3"/>
</svg>
