<svg width="16" height="16" viewBox="0 0 16 16" fill="none" xmlns="http://www.w3.org/2000/svg">
<path d="M0.25 8.0625C0.25 3.81734 3.69148 0.375 7.9375 0.375C12.1827 0.375 15.625 3.81729 15.625 8.0625C15.625 12.3086 12.1827 15.75 7.9375 15.75C3.69154 15.75 0.25 12.3085 0.25 8.0625ZM7.9375 1.875C4.52002 1.875 1.75 4.64566 1.75 8.0625C1.75 11.4801 4.51996 14.25 7.9375 14.25C11.3543 14.25 14.125 11.48 14.125 8.0625C14.125 4.64571 11.3543 1.875 7.9375 1.875Z" fill="white"/>
<path d="M7.93359 6.84518C8.34781 6.84518 8.68359 7.18097 8.68359 7.59518V10.9094C8.68359 11.3236 8.34781 11.6594 7.93359 11.6594C7.51938 11.6594 7.18359 11.3236 7.18359 10.9094V7.59518C7.18359 7.18097 7.51938 6.84518 7.93359 6.84518Z" fill="white"/>
<path d="M6.93375 5.21552C6.93375 4.66323 7.38146 4.21552 7.93375 4.21552H7.94125C8.49353 4.21552 8.94125 4.66323 8.94125 5.21552C8.94125 5.7678 8.49353 6.21552 7.94125 6.21552H7.93375C7.38146 6.21552 6.93375 5.7678 6.93375 5.21552Z" fill="white"/>
</svg>
