<svg width="12" height="16" viewBox="0 0 12 16" fill="none" xmlns="http://www.w3.org/2000/svg"><path d="M11.7388 15.2051L11.341 13.3984C11.3184 13.2922 11.2616 13.2126 11.1705 13.1598C11.072 13.1067 10.9735 13.0993 10.8751 13.1372L10.8182 13.1598L10.6817 13.1938C10.621 13.2088 10.5509 13.226 10.4714 13.2449C10.3919 13.2638 10.2992 13.2826 10.193 13.3017C10.0873 13.3206 9.97505 13.3378 9.85791 13.3529C9.74053 13.3678 9.61384 13.3812 9.47736 13.3927C9.34084 13.4039 9.20463 13.4096 9.06815 13.4096C8.10597 13.4096 7.24035 13.1502 6.47149 12.6313C5.70251 12.1122 5.13621 11.4095 4.77261 10.5233H9.17021C9.25371 10.5233 9.32945 10.4949 9.3974 10.438C9.46582 10.3813 9.50749 10.3113 9.52234 10.2277L9.79506 8.95492C9.81791 8.8416 9.79506 8.73919 9.72708 8.6482C9.65133 8.55721 9.55641 8.51168 9.44293 8.51168H4.22724C4.20451 7.99656 4.20451 7.59885 4.22724 7.31849H9.77269C9.97744 7.31849 10.0985 7.22009 10.1364 7.02311L10.4091 5.72763C10.4317 5.62159 10.4055 5.5232 10.3295 5.43222C10.2616 5.34131 10.1669 5.29565 10.0457 5.29565H4.72728C5.10608 4.44719 5.67421 3.78054 6.43189 3.29567C7.18949 2.81068 8.04555 2.56832 9.00009 2.56832C9.0305 2.5532 9.14215 2.55702 9.33519 2.57971C9.52835 2.60231 9.6384 2.61187 9.66479 2.60804C9.69094 2.6043 9.78985 2.61573 9.96012 2.64208C10.1306 2.66858 10.2159 2.68188 10.2159 2.68188L10.4148 2.7216C10.4717 2.73306 10.5153 2.74238 10.5455 2.75006L10.591 2.76136C10.6894 2.79181 10.7801 2.78226 10.8638 2.73306C10.9471 2.68367 11.0002 2.60992 11.023 2.51144L11.5117 0.70462C11.5343 0.606109 11.5228 0.515201 11.4777 0.431895C11.4094 0.340827 11.3335 0.284029 11.2502 0.261382C10.5533 0.087167 9.81815 0 9.04559 0C7.34838 0 5.83151 0.484991 4.49431 1.45457C3.15716 2.42424 2.23474 3.70468 1.72714 5.29553H0.613594C0.507481 5.29553 0.420433 5.32957 0.352212 5.39775C0.28419 5.46585 0.25 5.55302 0.25 5.65913V6.95461C0.25 7.06065 0.284071 7.14781 0.352212 7.21584C0.420473 7.2841 0.50764 7.31805 0.613594 7.31805H1.37501C1.35212 7.6818 1.3485 8.07931 1.36355 8.51136H0.613594C0.515123 8.51136 0.429906 8.5473 0.357944 8.61926C0.286021 8.69119 0.25 8.77644 0.25 8.87479V10.159C0.25 10.2576 0.286021 10.3426 0.357944 10.4148C0.429946 10.4867 0.515123 10.5224 0.613594 10.5224H1.69319C2.17046 12.1967 3.07206 13.5283 4.39783 14.5168C5.72369 15.5058 7.27295 15.9999 9.04559 15.9999C9.18967 15.9999 9.33543 15.9964 9.48321 15.9885C9.63128 15.9809 9.76927 15.9694 9.89811 15.9545C10.0268 15.9395 10.1538 15.9226 10.2788 15.9035C10.4037 15.8845 10.5174 15.8658 10.6196 15.8466C10.7219 15.8278 10.8185 15.8089 10.9093 15.79C11.0003 15.7709 11.0817 15.7503 11.1538 15.7274C11.2258 15.7049 11.2861 15.6878 11.3355 15.6766C11.3848 15.6652 11.4246 15.6517 11.4547 15.6368L11.5117 15.6254C11.595 15.5951 11.6594 15.5401 11.7048 15.4604C11.7503 15.3814 11.7615 15.296 11.7388 15.2051Z" fill="#FFF"/></svg>