<svg width="16" height="16" viewBox="0 0 16 16" fill="none" xmlns="http://www.w3.org/2000/svg"><path d="M15.9022 6.43068L14.5689 5.09735C14.5062 5.03469 14.4215 5.00001 14.3329 5.00001H13.9996V4.66667C13.9996 4.57801 13.9642 4.49332 13.9022 4.43067L11.2356 1.76404C10.7009 1.22942 9.80495 0.333435 7.99962 0.333435C6.19563 0.333435 5.3683 1.16077 4.76365 1.76407C4.6683 1.85942 4.63965 2.00273 4.69165 2.12741C4.74299 2.25207 4.86499 2.33341 4.99965 2.33341C7.68828 2.33341 7.99962 3.47474 7.99962 4.33339C7.99962 5.04672 7.59562 5.59003 7.33762 5.86671L9.5156 8.04469C10.1049 7.64604 10.9422 7.17536 11.3329 7.21004V7.66669C11.3329 7.75535 11.3683 7.84004 11.4303 7.90269L13.0969 9.56933C13.1596 9.63133 13.2443 9.66667 13.3329 9.66667H13.3443C13.4369 9.66401 13.5236 9.62267 13.5836 9.55333L15.9169 6.8867C16.0329 6.75402 16.0262 6.55536 15.9022 6.43068Z" fill="#FFF"/><path d="M0.503994 12.6913C0.179342 13.016 0 13.4479 0 13.9466C0 14.8952 0.771335 15.6666 1.71998 15.6666C2.20332 15.6666 2.66731 15.4612 2.99262 15.1039L9.01124 8.48335L6.86192 6.33337L0.503994 12.6913Z" fill="#FFF"/></svg>