<svg width="16" height="16" viewBox="0 0 16 16" fill="none" xmlns="http://www.w3.org/2000/svg"><path d="M4.19727 4.19812V5.2019C4.37305 5.10121 4.47801 4.92318 4.50651 4.75381C4.52701 4.63162 4.53542 4.34053 4.19727 4.19812Z" fill="#FFF"/><path d="M3.40589 2.87063C3.38092 3.0031 3.41251 3.12616 3.48642 3.1841C3.51245 3.20451 3.54114 3.22457 3.57188 3.24429V2.59079C3.47654 2.66391 3.42398 2.77463 3.40589 2.87063Z" fill="#FFF"/><path d="M3.90625 0C1.75234 0 0 1.75234 0 3.90625C0 6.06016 1.75234 7.8125 3.90625 7.8125C6.06016 7.8125 7.8125 6.06016 7.8125 3.90625C7.8125 1.75234 6.06016 0 3.90625 0ZM5.12278 4.85738C5.04925 5.29472 4.71644 5.73825 4.19719 5.86997V6.09375C4.19719 6.26631 4.05725 6.40625 3.88469 6.40625C3.71212 6.40625 3.57219 6.26631 3.57219 6.09375V5.89994C3.31988 5.87813 3.11072 5.80997 2.81422 5.616C2.66978 5.52153 2.62931 5.32784 2.72378 5.18341C2.81822 5.039 3.01194 4.99844 3.15637 5.09297C3.32512 5.20334 3.43097 5.25122 3.57219 5.27109V3.95138C3.37259 3.85991 3.22341 3.77187 3.101 3.67584C2.84166 3.47244 2.72325 3.11956 2.79197 2.75484C2.86684 2.35741 3.1435 2.04119 3.51391 1.92963C3.53353 1.92372 3.55294 1.91831 3.57219 1.91319V1.71875C3.57219 1.54619 3.71212 1.40625 3.88469 1.40625C4.05725 1.40625 4.19719 1.54619 4.19719 1.71875V1.87897C4.50059 1.9315 4.71503 2.08087 4.81891 2.20012C4.93228 2.33025 4.91866 2.52766 4.78853 2.641C4.65909 2.75372 4.46313 2.74097 4.34944 2.61272C4.34231 2.6055 4.29266 2.55769 4.19719 2.52247V3.53222C4.25266 3.55281 4.30809 3.57278 4.3625 3.59203C4.91181 3.78619 5.21734 4.29472 5.12278 4.85738Z" fill="#FFF"/><path d="M15.6097 6.94413L13.9798 6.66731C13.775 6.34891 13.5333 6.05541 13.2579 5.79094C13.4163 4.99909 13.8429 4.29475 14.4757 3.7885L14.5741 3.70981C14.7295 3.58547 14.7895 3.37647 14.7236 3.18859C14.6577 3.00072 14.4803 2.875 14.2812 2.875H13.0312C11.9252 2.875 10.913 3.50034 10.4052 4.46444C10.237 4.44653 10.0701 4.4375 9.90625 4.4375H8.72075C8.45531 6.85934 6.39759 8.75 3.90625 8.75C2.54528 8.75 1.31387 8.18559 0.433125 7.27881C0.149875 7.90275 0 8.58481 0 9.28125C0 10.7779 0.696563 12.1895 1.875 13.1054V15.5312C1.875 15.7901 2.08488 16 2.34375 16H4.21875C4.4205 16 4.59962 15.8709 4.66344 15.6795L5.18162 14.125H9.56841L10.0866 15.6795C10.1504 15.8709 10.3295 16 10.5312 16H12.4062C12.6651 16 12.875 15.7901 12.875 15.5312V13.1055C13.5196 12.6048 14.0237 11.9543 14.3482 11.2039L15.7073 10.6532C15.8842 10.5815 16 10.4097 16 10.2188V7.40625C16 7.17766 15.8351 6.98241 15.6097 6.94413ZM11.9375 8.03125C11.6786 8.03125 11.4688 7.82137 11.4688 7.5625C11.4688 7.30363 11.6786 7.09375 11.9375 7.09375C12.1964 7.09375 12.4062 7.30363 12.4062 7.5625C12.4062 7.82137 12.1964 8.03125 11.9375 8.03125Z" fill="#FFF"/></svg>