<svg width="28" height="28" viewBox="0 0 28 28" fill="none" xmlns="http://www.w3.org/2000/svg">
<path fill-rule="evenodd" clip-rule="evenodd" d="M28 17L20 17V15L28 15V17Z" fill="#E0E1E3"/>
<path fill-rule="evenodd" clip-rule="evenodd" d="M18 17L10 17V15L18 15V17Z" fill="#E0E1E3"/>
<path fill-rule="evenodd" clip-rule="evenodd" d="M8 17L0 17L0 15L8 15V17Z" fill="#E0E1E3"/>
<path fill-rule="evenodd" clip-rule="evenodd" d="M8 20L0 20L0 18L8 18V20Z" fill="#E0E1E3"/>
<path fill-rule="evenodd" clip-rule="evenodd" d="M18 20L10 20V18L18 18V20Z" fill="#E0E1E3"/>
<path fill-rule="evenodd" clip-rule="evenodd" d="M28 20L20 20V18L28 18V20Z" fill="#E0E1E3"/>
<path fill-rule="evenodd" clip-rule="evenodd" d="M8 14L0 14L0 12L8 12V14Z" fill="#E0E1E3"/>
<path fill-rule="evenodd" clip-rule="evenodd" d="M18 14L10 14V12L18 12V14Z" fill="#E0E1E3"/>
<path fill-rule="evenodd" clip-rule="evenodd" d="M28 14L20 14V12L28 12V14Z" fill="#E0E1E3"/>
<path fill-rule="evenodd" clip-rule="evenodd" d="M8 11L0 11L0 9L8 9V11Z" fill="#E0E1E3"/>
<path fill-rule="evenodd" clip-rule="evenodd" d="M18 11L10 11V9L18 9V11Z" fill="#E0E1E3"/>
<path fill-rule="evenodd" clip-rule="evenodd" d="M28 11L20 11V9L28 9V11Z" fill="#E0E1E3"/>
</svg>
