<?xml version="1.0" encoding="UTF-8" standalone="no"?><!-- Generator: Gravit.io --><svg xmlns="http://www.w3.org/2000/svg" xmlns:xlink="http://www.w3.org/1999/xlink" style="isolation:isolate" viewBox="809.09 737.69 11.06 13.74" width="11.06pt" height="13.74pt"><path d=" M 820.15 748.73 C 820.16 749.28 819.94 749.81 819.56 750.21 C 819.17 750.59 818.71 750.86 818.2 751 C 817.66 751.18 817.1 751.29 816.53 751.34 C 815.9 751.4 815.26 751.43 814.62 751.43 C 813.99 751.43 813.35 751.4 812.71 751.34 C 812.14 751.28 811.58 751.17 811.04 751 C 810.53 750.85 810.07 750.57 809.69 750.21 C 809.31 749.8 809.09 749.27 809.09 748.71 C 809.09 748.15 809.31 747.62 809.7 747.22 C 810.08 746.85 810.54 746.58 811.05 746.43 C 811.59 746.26 812.15 746.15 812.72 746.1 C 813.35 746.04 813.99 746.01 814.62 746.01 C 815.26 746.01 815.9 746.04 816.54 746.1 C 817.1 746.15 817.66 746.27 818.21 746.44 C 818.71 746.59 819.18 746.86 819.55 747.23 C 819.94 747.63 820.16 748.17 820.15 748.73 Z  M 818.65 748.73 C 818.66 748.89 818.59 749.05 818.48 749.17 C 818.28 749.35 818.03 749.49 817.76 749.57 C 817.32 749.71 816.86 749.8 816.39 749.84 C 815.8 749.9 815.21 749.93 814.62 749.93 C 814.03 749.93 813.44 749.9 812.86 749.84 C 812.39 749.8 811.93 749.71 811.48 749.56 C 811.21 749.48 810.96 749.34 810.76 749.15 C 810.65 749.03 810.59 748.87 810.59 748.71 C 810.59 748.55 810.65 748.4 810.76 748.28 C 810.97 748.09 811.21 747.95 811.48 747.87 C 811.93 747.73 812.39 747.63 812.86 747.59 C 813.45 747.53 814.04 747.51 814.62 747.51 C 815.21 747.51 815.8 747.53 816.39 747.59 C 816.86 747.64 817.32 747.73 817.77 747.88 C 818.04 747.95 818.28 748.09 818.49 748.29 C 818.6 748.41 818.66 748.56 818.65 748.73 Z  M 814.6 745.25 C 813.6 745.24 812.65 744.85 811.94 744.14 C 811.24 743.43 810.85 742.48 810.85 741.48 C 810.85 741.48 810.85 741.48 810.85 741.48 L 810.85 741.47 C 810.85 740.47 811.24 739.51 811.95 738.8 C 812.66 738.09 813.62 737.69 814.62 737.69 C 815.63 737.69 816.59 738.09 817.3 738.8 C 818 739.51 818.4 740.47 818.4 741.47 C 818.4 742.47 818 743.43 817.3 744.14 C 816.59 744.85 815.63 745.25 814.62 745.25 C 814.62 745.25 814.62 745.25 814.62 745.25 L 814.6 745.25 C 814.6 745.25 814.6 745.25 814.6 745.25 Z  M 812.27 741.48 L 812.27 741.47 C 812.27 741.47 812.27 741.47 812.27 741.47 C 812.27 740.85 812.52 740.25 812.96 739.81 C 813.4 739.37 814 739.12 814.62 739.12 C 815.25 739.12 815.84 739.37 816.29 739.81 C 816.73 740.25 816.97 740.85 816.97 741.47 C 816.97 742.09 816.73 742.69 816.29 743.13 C 815.84 743.57 815.25 743.82 814.62 743.82 L 814.6 743.82 C 813.99 743.82 813.39 743.57 812.96 743.13 C 812.52 742.69 812.27 742.1 812.27 741.48 Z " fill-rule="evenodd" fill="rgb(255,255,255)"/></svg>